<svg xmlns="http://www.w3.org/2000/svg" width="46" height="12" viewBox="0 0 46 12">
    <defs>
        <linearGradient id="a" x1="100%" x2="0%" y1="46.781%" y2="53.219%">
            <stop offset="0%" stop-color="#473B7B"/>
            <stop offset="50.911%" stop-color="#3584A7"/>
            <stop offset="100%" stop-color="#30D2BE"/>
        </linearGradient>
    </defs>
    <path fill="url(#a)" fill-rule="nonzero" d="M-1.56.887c3.615 6.358 7.255 9.682 11.17 9.682 2.528 0 4.062-1.026 6.758-3.709l.146-.145c2.158-2.149 3.142-2.809 4.49-2.809 1.317 0 2.261.635 4.335 2.72l.083.083c2.801 2.816 4.354 3.86 7.038 3.86 4.095 0 7.74-3.351 11.13-9.727L40.424-.842c-2.831 5.324-5.55 7.823-7.963 7.823-1.388 0-2.351-.648-4.494-2.802l-.083-.083C25.151 1.349 23.616.319 21.003.319c-2.641 0-4.2 1.046-7.02 3.853l-.146.145c-2.036 2.026-2.99 2.664-4.226 2.664-2.249 0-5.015-2.526-8.051-7.868L-1.56.887z" transform="translate(2 1)"/>
</svg>
